<svg xmlns="http://www.w3.org/2000/svg" viewBox="0 0 64 64"><rect width="64" height="64" rx="14" fill="#0f62fe"/><path fill="#fff" d="M13 18c6-8 14-9 19-4 5-5 13-4 19 4-2 1-4 4-5 7 4 1 7 5 7 10 0 8-7 15-16 15h-10c-9 0-16-7-16-15 0-5 3-9 7-10-1-3-3-6-5-7Zm11 8c-5 0-8 4-8 9 0 5 4 9 9 9h4v-7c-4-1-7-4-8-8 1-1 2-2 3-3Zm16 0c1 1 2 2 3 3-1 4-4 7-8 8v7h4c5 0 9-4 9-9 0-5-3-9-8-9ZM25 18c-3-2-7-1-10 2 5 1 9 4 11 8l3-5c-1-2-2-4-4-5Zm14 0c-2 1-3 3-4 5l3 5c2-4 6-7 11-8-3-3-7-4-10-2Zm-7 9-5 7 5 4 5-4-5-7Z"/></svg>